<?xml version="1.0" standalone="no"?>
<!DOCTYPE svg PUBLIC "-//W3C//DTD SVG 20010904//EN"
 "http://www.w3.org/TR/2001/REC-SVG-20010904/DTD/svg10.dtd">
<svg version="1.0" xmlns="http://www.w3.org/2000/svg"
 width="1024.000000pt" height="1024.000000pt" viewBox="0 0 1024.000000 1024.000000"
 preserveAspectRatio="xMidYMid meet">
<metadata>
Created by potrace 1.14, written by Peter Selinger 2001-2017
</metadata>
<g transform="translate(0.000000,1024.000000) scale(0.100000,-0.100000)"
fill="#000000" stroke="none">
<path d="M1289 10235 c-1 0 -3 -284 -4 -630 0 -347 -4 -635 -7 -640 -4 -7
-237 -10 -637 -10 -347 0 -632 -2 -632 -5 -1 -3 -2 -288 -3 -633 -1 -551 1
-630 14 -636 11 -5 1197 -7 1255 -2 7 1 10 220 9 639 l0 637 634 0 c377 0 636
4 640 9 7 11 9 1266 2 1267 -3 1 -1256 5 -1271 4z"/>
<path d="M3844 10225 c-2 -5 -2 -293 -1 -640 l2 -630 635 0 635 0 0 640 0 640
-634 0 c-417 0 -635 -3 -637 -10z"/>
<path d="M6399 10200 c0 -19 0 -304 0 -632 -1 -444 -4 -600 -12 -605 -7 -4
-293 -8 -637 -8 l-625 0 0 -639 0 -639 628 0 c345 1 631 2 636 2 6 1 9 247 8
639 l-2 637 641 0 641 0 0 637 c0 452 -3 638 -11 639 -6 1 -293 2 -638 3
l-628 1 -1 -35z"/>
<path d="M8958 10220 c-2 -8 -3 -296 -3 -640 l1 -625 -631 1 c-346 0 -634 -3
-640 -7 -11 -8 -13 -1255 -2 -1266 4 -3 292 -7 639 -7 l633 -1 0 -639 0 -639
-633 0 c-569 0 -634 -2 -640 -16 -6 -12 -8 -1207 -3 -1253 1 -5 288 -9 639
-10 l637 -3 0 -635 1 -635 639 0 640 0 0 635 0 635 -640 5 -639 5 -1 628 c0
346 2 632 5 636 3 5 290 8 637 7 414 -1 634 2 636 9 3 9 1 1244 -2 1263 0 5
-284 9 -629 9 -346 0 -633 2 -638 5 -10 7 -12 1247 -2 1263 4 7 233 10 637 10
347 0 632 2 632 5 4 17 3 1263 -1 1269 -3 3 -289 7 -637 6 -556 0 -632 -2
-635 -15z"/>
<path d="M2571 8950 c-5 -3 -8 -290 -7 -639 l1 -634 633 -1 c349 -1 636 3 639
7 7 12 6 1258 -2 1265 -8 8 -1253 10 -1264 2z"/>
<path d="M1289 7676 c-1 -1 -2 -288 -3 -638 l-1 -638 30 -1 c168 -5 1232 -3
1240 3 11 7 13 1233 3 1260 -5 13 -93 15 -637 15 -347 0 -632 -1 -632 -1z"/>
<path d="M3845 7666 c-2 -6 -3 -294 -2 -640 l2 -629 635 0 635 0 0 639 0 639
-633 1 c-453 1 -635 -2 -637 -10z"/>
<path d="M6405 7673 c-11 -3 -11 -1260 -1 -1271 3 -3 291 -6 639 -6 l634 -1
-1 640 -1 640 -630 1 c-346 0 -634 -1 -640 -3z"/>
<path d="M6 6391 c-1 -3 -2 -289 -2 -636 l1 -630 640 0 639 0 1 633 c0 554 -2
633 -15 636 -24 7 -1261 3 -1264 -3z"/>
<path d="M2564 5761 l1 -636 638 0 639 0 0 627 c0 345 -3 631 -6 636 -3 5
-290 9 -639 9 l-634 0 1 -636z"/>
<path d="M5120 5758 l0 -638 -639 0 -640 0 2 -640 2 -640 -641 0 -641 0 1
-637 1 -638 638 -1 637 -1 1 31 c0 17 1 303 2 636 l2 605 638 3 637 2 0 -638
0 -639 638 1 637 1 0 638 0 637 641 0 641 0 -1 638 -1 637 -637 3 -638 2 -1
-37 c0 -21 -1 -308 -2 -638 l-2 -600 -637 -3 -638 -2 0 640 0 640 638 2 637 3
0 635 0 635 -637 1 -638 1 0 -639z"/>
<path d="M1284 4483 l1 -638 639 0 639 0 0 628 c-1 345 -2 632 -2 637 -1 7
-221 10 -639 10 l-638 0 0 -637z"/>
<path d="M7 3833 c-3 -7 -2 -1248 2 -1264 0 -3 288 -5 639 -5 l637 1 0 -641 0
-641 -625 -1 c-344 0 -632 -1 -640 -1 -13 -1 -15 -76 -14 -629 1 -345 2 -631
3 -637 1 -7 220 -10 636 -10 559 0 635 2 636 15 1 8 2 294 3 634 l1 620 25 5
c14 4 301 6 638 5 336 0 612 2 613 5 6 47 2 1264 -5 1269 -5 3 -289 5 -630 5
-342 0 -626 3 -631 8 -7 5 -10 227 -10 638 l0 631 -637 0 c-350 0 -639 -3
-641 -7z"/>
<path d="M7679 3833 c-5 -46 -3 -1242 3 -1254 6 -14 71 -16 631 -16 343 0 628
-3 633 -6 6 -3 10 -246 9 -632 0 -407 4 -629 10 -634 6 -5 293 -8 640 -7 l630
1 0 638 c0 419 -3 637 -10 638 -5 0 -293 1 -640 2 l-629 2 0 638 0 637 -638 0
c-351 0 -638 -3 -639 -7z"/>
<path d="M3845 2560 c-2 -3 -4 -282 -4 -620 0 -338 0 -624 -1 -636 l0 -21
-635 1 c-557 1 -636 -1 -639 -14 -2 -8 -3 -296 -3 -640 l2 -625 638 0 c560 0
637 2 637 15 1 8 2 296 3 639 l2 624 635 1 635 1 3 638 c1 350 -1 637 -5 638
-37 4 -1266 3 -1268 -1z"/>
<path d="M6408 2559 c-10 -7 -14 -1250 -4 -1267 3 -5 290 -9 639 -9 l634 0 1
626 c0 344 -2 633 -4 641 -3 13 -82 15 -630 15 -344 0 -630 -3 -636 -6z"/>
<path d="M5124 1275 c-2 -5 -3 -293 -2 -640 l3 -630 628 0 c346 0 632 2 637 5
4 3 7 290 7 639 l-2 634 -634 1 c-414 1 -635 -2 -637 -9z"/>
<path d="M7687 1278 c-12 -7 -18 -1232 -6 -1258 6 -13 85 -15 636 -14 345 1
631 2 634 3 3 0 5 288 5 638 l-1 636 -628 1 c-346 1 -634 -2 -640 -6z"/>
</g>
</svg>
